<?xml version="1.0" encoding="utf-8"?>
<!-- Generator: Adobe Illustrator 16.0.3, SVG Export Plug-In . SVG Version: 6.00 Build 0)  -->
<!DOCTYPE svg PUBLIC "-//W3C//DTD SVG 1.1//EN" "http://www.w3.org/Graphics/SVG/1.1/DTD/svg11.dtd">
<svg version="1.1" id="Layer_1" xmlns="http://www.w3.org/2000/svg" xmlns:xlink="http://www.w3.org/1999/xlink" x="0px" y="0px"
	 width="256px" height="256px" viewBox="0 0 256 256" enable-background="new 0 0 256 256" xml:space="preserve">
<rect x="7.114" y="-334.072" display="none" fill="#FFFFFF" width="246.889" height="246.627"/>
<text transform="matrix(1 0 0 1 12.9648 119.6191)" display="none" font-family="'GunnyHandwriting'" font-size="52.92">0</text>
<g>
	<polygon fill="#AEC3FF" points="254.003,128.041 7.114,128.041 7.114,4.928 52.307,4.928 64.885,9.195 75.981,18.501 
		84.615,30.108 108.858,81.467 130.445,35.19 151.233,13.615 171.629,4.928 254.003,4.928 	"/>
	<polygon fill="#E89199" points="254.003,251.555 204.945,247.502 171.554,242.366 148.34,214.207 142.984,168.537 107.952,238.102 
		74.57,168.801 67.67,227.452 55.634,243.114 37.349,251.555 7.114,251.555 7.114,128.041 254.003,128.041 	"/>
	
		<line fill="none" stroke="#000000" stroke-width="7" stroke-linecap="round" stroke-miterlimit="10" x1="3.805" y1="128" x2="252.121" y2="128.045"/>
	
		<line fill="none" stroke="#000000" stroke-width="7" stroke-linecap="round" stroke-miterlimit="10" x1="45.554" y1="3.994" x2="45.554" y2="252.631"/>
	
		<line fill="none" stroke="#000000" stroke-width="7" stroke-linecap="round" stroke-miterlimit="10" x1="108.554" y1="117.965" x2="108.554" y2="138.125"/>
	
		<line fill="none" stroke="#000000" stroke-width="7" stroke-linecap="round" stroke-miterlimit="10" x1="171.554" y1="117.965" x2="171.554" y2="138.125"/>
	
		<line fill="none" stroke="#000000" stroke-width="7" stroke-linecap="round" stroke-miterlimit="10" x1="234.554" y1="117.965" x2="234.554" y2="138.125"/>
	
		<line fill="none" stroke="#000000" stroke-width="7" stroke-linecap="round" stroke-miterlimit="10" x1="35.474" y1="65.045" x2="55.634" y2="65.045"/>
	
		<line fill="none" stroke="#000000" stroke-width="7" stroke-linecap="round" stroke-miterlimit="10" x1="35.474" y1="191.045" x2="55.634" y2="191.045"/>
	<g>
		<path fill="#FFFFFF" d="M209.506,71.684c1.469-7.864,0.904-16.151-1.698-24.867c-2.604-8.712-6.705-12.672-12.306-11.882
			c-5.602,0.793-11.656,5.008-18.162,12.646c-6.508,7.639-11.317,18.306-14.428,31.996c-3.114,13.693,4.328,19.663,22.32,17.907
			c17.993-1.753,31.203,9.055,39.634,32.42c8.428,23.366,9.137,47.103,2.122,71.206c-7.018,24.103-18.814,31.372-35.391,21.812
			c-16.579-9.564-18.814-24.162-6.705-43.793c12.107-19.634,15.048-21.246,8.827-4.838c-6.225,16.406-5.262,30.325,2.885,41.756
			c8.147,11.429,14.03,6.761,17.653-14.003c3.62-20.767,2.148-43.793-4.413-69.084c-6.564-25.291-19.634-34.398-39.209-27.328
			c-19.579,7.073-27.667,0.369-24.273-20.113c3.395-20.48,10.72-36.465,21.981-47.951c11.258-11.484,24.188-13.606,38.785-6.365
			c14.598,7.243,20.339,17.626,17.229,31.146c-3.114,13.523-7.723,22.575-13.834,27.158c-6.11,4.583-8.176,4.727-6.195,0.425
			C206.307,85.631,208.034,79.55,209.506,71.684z"/>
	</g>
	<path fill="none" stroke="#C1272D" stroke-width="10" stroke-linecap="round" stroke-linejoin="round" stroke-miterlimit="10" d="
		M250.982,247.912c-84.453-0.3-102.617,6.287-106.514-88.641c-10.405,26.21-23.141,52.43-35.609,78.137
		c-12.557-25.771-25.176-52.144-35.647-78.438c-2.322,57.56-1.388,99.056-67.616,91.083"/>
	<path fill="none" stroke="#0043BD" stroke-width="10" stroke-linecap="round" stroke-linejoin="round" stroke-miterlimit="10" d="
		M250.494,5.555c-99.89,0.273-100.083-13.077-141.635,75.912C74.741,8.191,85.848,5.551,5.595,5.551"/>
</g>
</svg>
